{
 "accessors": [
  {
   "componentType": 5126,
   "type": "VEC3",
   "count": 4380,
   "max": [
    17.422821044921875,
    9.2698974609375,
    23.74664878845215
   ],
   "min": [
    -17.422821044921875,
    4.225358009338379,
    -23.74664878845215
   ],
   "bufferView": 4
  },
  {
   "componentType": 5126,
   "type": "VEC3",
   "count": 4380,
   "bufferView": 5
  },
  {
   "componentType": 5126,
   "type": "VEC2",
   "count": 4380,
   "bufferView": 6
  },
  {
   "componentType": 5123,
   "type": "SCALAR",
   "count": 6564,
   "bufferView": 7
  },
  {
   "componentType": 5126,
   "type": "VEC3",
   "count": 12312,
   "max": [
    11.468441009521484,
    56.02353286743164,
    34.56174087524414
   ],
   "min": [
    -11.468441009521484,
    6.5344696044921875,
    1.5537528991699219
   ],
   "bufferView": 8
  },
  {
   "componentType": 5126,
   "type": "VEC3",
   "count": 12312,
   "bufferView": 9
  },
  {
   "componentType": 5126,
   "type": "VEC2",
   "count": 12312,
   "bufferView": 10
  },
  {
   "componentType": 5123,
   "type": "SCALAR",
   "count": 32832,
   "bufferView": 11
  },
  {
   "componentType": 5126,
   "type": "VEC3",
   "count": 21168,
   "max": [
    11.4684419631958,
    59.23070526123047,
    36.04639434814453
   ],
   "min": [
    -11.468440055847168,
    6.534468650817871,
    -34.5632438659668
   ],
   "bufferView": 12
  },
  {
   "componentType": 5126,
   "type": "VEC3",
   "count": 21168,
   "bufferView": 13
  },
  {
   "componentType": 5126,
   "type": "VEC2",
   "count": 21168,
   "bufferView": 14
  },
  {
   "componentType": 5123,
   "type": "SCALAR",
   "count": 56448,
   "bufferView": 15
  },
  {
   "componentType": 5126,
   "type": "VEC3",
   "count": 9900,
   "max": [
    2.0925443172454834,
    3.5914485454559326,
    11.281872749328613
   ],
   "min": [
    -2.1986074447631836,
    -3.591449022293091,
    4.103350639343262
   ],
   "bufferView": 16
  },
  {
   "componentType": 5126,
   "type": "VEC3",
   "count": 9900,
   "bufferView": 17
  },
  {
   "componentType": 5126,
   "type": "VEC2",
   "count": 9900,
   "bufferView": 18
  },
  {
   "componentType": 5123,
   "type": "SCALAR",
   "count": 44820,
   "bufferView": 19
  },
  {
   "componentType": 5126,
   "type": "VEC3",
   "count": 13659,
   "max": [
    18.119897842407227,
    10.353730201721191,
    21.01232147216797
   ],
   "min": [
    -18.11991310119629,
    1.3673360347747803,
    -21.01232147216797
   ],
   "bufferView": 20
  },
  {
   "componentType": 5126,
   "type": "VEC3",
   "count": 13659,
   "bufferView": 21
  },
  {
   "componentType": 5126,
   "type": "VEC2",
   "count": 13659,
   "bufferView": 22
  },
  {
   "componentType": 5123,
   "type": "SCALAR",
   "count": 48924,
   "bufferView": 23
  },
  {
   "componentType": 5126,
   "type": "VEC3",
   "count": 16,
   "max": [
    6.080872535705566,
    7.641079902648926,
    15.103280067443848
   ],
   "min": [
    -6.080869674682617,
    -7.413079261779785,
    15.103272438049316
   ],
   "bufferView": 24
  },
  {
   "componentType": 5126,
   "type": "VEC3",
   "count": 16,
   "bufferView": 25
  },
  {
   "componentType": 5126,
   "type": "VEC2",
   "count": 16,
   "bufferView": 26
  },
  {
   "componentType": 5126,
   "type": "VEC2",
   "count": 16,
   "bufferView": 27
  },
  {
   "componentType": 5121,
   "type": "SCALAR",
   "count": 24,
   "bufferView": 28
  },
  {
   "componentType": 5126,
   "type": "VEC3",
   "count": 241,
   "max": [
    18.574235916137695,
    7.206271171569824,
    -0.979344367980957
   ],
   "min": [
    17.255321502685547,
    3.1474475860595703,
    -11.784137725830078
   ],
   "bufferView": 29
  },
  {
   "componentType": 5126,
   "type": "VEC3",
   "count": 241,
   "bufferView": 30
  },
  {
   "componentType": 5126,
   "type": "VEC2",
   "count": 241,
   "bufferView": 31
  },
  {
   "componentType": 5121,
   "type": "SCALAR",
   "count": 1080,
   "bufferView": 32
  },
  {
   "componentType": 5126,
   "type": "VEC3",
   "count": 768,
   "max": [
    8.683481216430664,
    12.244266510009766,
    7.106143951416016
   ],
   "min": [
    -8.683479309082031,
    11.687689781188965,
    -7.106142044067383
   ],
   "bufferView": 33
  },
  {
   "componentType": 5126,
   "type": "VEC3",
   "count": 768,
   "bufferView": 34
  },
  {
   "componentType": 5123,
   "type": "SCALAR",
   "count": 1152,
   "bufferView": 35
  },
  {
   "componentType": 5126,
   "type": "VEC3",
   "count": 512,
   "max": [
    7.756220817565918,
    2.0511837005615234,
    6.181455135345459
   ],
   "min": [
    -7.75622034072876,
    1.6977298259735107,
    -6.18145227432251
   ],
   "bufferView": 36
  },
  {
   "componentType": 5126,
   "type": "VEC3",
   "count": 512,
   "bufferView": 37
  },
  {
   "componentType": 5126,
   "type": "VEC2",
   "count": 512,
   "bufferView": 38
  },
  {
   "componentType": 5126,
   "type": "VEC4",
   "count": 512,
   "bufferView": 39
  },
  {
   "componentType": 5123,
   "type": "SCALAR",
   "count": 768,
   "bufferView": 40
  },
  {
   "componentType": 5126,
   "type": "VEC3",
   "count": 1280,
   "max": [
    4.454812526702881,
    3.7812700271606445,
    9.377994537353516
   ],
   "min": [
    -4.454813480377197,
    -3.5532684326171875,
    9.136406898498535
   ],
   "bufferView": 41
  },
  {
   "componentType": 5126,
   "type": "VEC3",
   "count": 1280,
   "bufferView": 42
  },
  {
   "componentType": 5126,
   "type": "VEC2",
   "count": 1280,
   "bufferView": 43
  },
  {
   "componentType": 5123,
   "type": "SCALAR",
   "count": 1920,
   "bufferView": 44
  },
  {
   "componentType": 5126,
   "type": "VEC3",
   "count": 2480,
   "max": [
    16.4013614654541,
    1.5885987281799316,
    19.293785095214844
   ],
   "min": [
    -16.401376724243164,
    0.16563701629638672,
    -19.293785095214844
   ],
   "bufferView": 45
  },
  {
   "componentType": 5126,
   "type": "VEC3",
   "count": 2480,
   "bufferView": 46
  },
  {
   "componentType": 5126,
   "type": "VEC2",
   "count": 2480,
   "bufferView": 47
  },
  {
   "componentType": 5126,
   "type": "VEC2",
   "count": 2480,
   "bufferView": 48
  },
  {
   "componentType": 5123,
   "type": "SCALAR",
   "count": 3720,
   "bufferView": 49
  },
  {
   "componentType": 5126,
   "type": "VEC3",
   "count": 2968,
   "max": [
    13.934617042541504,
    2.270378351211548,
    13.934617042541504
   ],
   "min": [
    -13.934617042541504,
    -0.000005036524726165226,
    -13.934617042541504
   ],
   "bufferView": 50
  },
  {
   "componentType": 5126,
   "type": "VEC3",
   "count": 2968,
   "bufferView": 51
  },
  {
   "componentType": 5123,
   "type": "SCALAR",
   "count": 4440,
   "bufferView": 52
  },
  {
   "componentType": 5126,
   "type": "VEC3",
   "count": 653,
   "max": [
    16.254499435424805,
    1.366438388824463,
    19.14692497253418
   ],
   "min": [
    -16.2545166015625,
    -0.000013828277587890625,
    -19.14692497253418
   ],
   "bufferView": 53
  },
  {
   "componentType": 5126,
   "type": "VEC3",
   "count": 653,
   "bufferView": 54
  },
  {
   "componentType": 5123,
   "type": "SCALAR",
   "count": 3408,
   "bufferView": 55
  }
 ],
 "asset": {
  "version": "2.0",
  "generator": "clara.io"
 },
 "bufferViews": [
  {
   "buffer": 0,
   "byteOffset": 0,
   "byteLength": 114788
  },
  {
   "buffer": 0,
   "byteOffset": 114788,
   "byteLength": 121737
  },
  {
   "buffer": 0,
   "byteOffset": 236528,
   "byteLength": 38536
  },
  {
   "buffer": 0,
   "byteOffset": 275064,
   "byteLength": 181155
  },
  {
   "buffer": 0,
   "byteOffset": 456220,
   "byteLength": 52560,
   "target": 34962,
   "byteStride": 12
  },
  {
   "buffer": 0,
   "byteOffset": 508780,
   "byteLength": 52560,
   "target": 34962,
   "byteStride": 12
  },
  {
   "buffer": 0,
   "byteOffset": 561340,
   "byteLength": 35040,
   "target": 34962,
   "byteStride": 8
  },
  {
   "buffer": 0,
   "byteOffset": 596380,
   "byteLength": 13128,
   "target": 34963
  },
  {
   "buffer": 0,
   "byteOffset": 609508,
   "byteLength": 147744,
   "target": 34962,
   "byteStride": 12
  },
  {
   "buffer": 0,
   "byteOffset": 757252,
   "byteLength": 147744,
   "target": 34962,
   "byteStride": 12
  },
  {
   "buffer": 0,
   "byteOffset": 904996,
   "byteLength": 98496,
   "target": 34962,
   "byteStride": 8
  },
  {
   "buffer": 0,
   "byteOffset": 1003492,
   "byteLength": 65664,
   "target": 34963
  },
  {
   "buffer": 0,
   "byteOffset": 1069156,
   "byteLength": 254016,
   "target": 34962,
   "byteStride": 12
  },
  {
   "buffer": 0,
   "byteOffset": 1323172,
   "byteLength": 254016,
   "target": 34962,
   "byteStride": 12
  },
  {
   "buffer": 0,
   "byteOffset": 1577188,
   "byteLength": 169344,
   "target": 34962,
   "byteStride": 8
  },
  {
   "buffer": 0,
   "byteOffset": 1746532,
   "byteLength": 112896,
   "target": 34963
  },
  {
   "buffer": 0,
   "byteOffset": 1859428,
   "byteLength": 118800,
   "target": 34962,
   "byteStride": 12
  },
  {
   "buffer": 0,
   "byteOffset": 1978228,
   "byteLength": 118800,
   "target": 34962,
   "byteStride": 12
  },
  {
   "buffer": 0,
   "byteOffset": 2097028,
   "byteLength": 79200,
   "target": 34962,
   "byteStride": 8
  },
  {
   "buffer": 0,
   "byteOffset": 2176228,
   "byteLength": 89640,
   "target": 34963
  },
  {
   "buffer": 0,
   "byteOffset": 2265868,
   "byteLength": 163908,
   "target": 34962,
   "byteStride": 12
  },
  {
   "buffer": 0,
   "byteOffset": 2429776,
   "byteLength": 163908,
   "target": 34962,
   "byteStride": 12
  },
  {
   "buffer": 0,
   "byteOffset": 2593684,
   "byteLength": 109272,
   "target": 34962,
   "byteStride": 8
  },
  {
   "buffer": 0,
   "byteOffset": 2702956,
   "byteLength": 97848,
   "target": 34963
  },
  {
   "buffer": 0,
   "byteOffset": 2800804,
   "byteLength": 192,
   "target": 34962,
   "byteStride": 12
  },
  {
   "buffer": 0,
   "byteOffset": 2800996,
   "byteLength": 192,
   "target": 34962,
   "byteStride": 12
  },
  {
   "buffer": 0,
   "byteOffset": 2801188,
   "byteLength": 128,
   "target": 34962,
   "byteStride": 8
  },
  {
   "buffer": 0,
   "byteOffset": 2801316,
   "byteLength": 128,
   "target": 34962,
   "byteStride": 8
  },
  {
   "buffer": 0,
   "byteOffset": 2801444,
   "byteLength": 24,
   "target": 34963
  },
  {
   "buffer": 0,
   "byteOffset": 2801468,
   "byteLength": 2892,
   "target": 34962,
   "byteStride": 12
  },
  {
   "buffer": 0,
   "byteOffset": 2804360,
   "byteLength": 2892,
   "target": 34962,
   "byteStride": 12
  },
  {
   "buffer": 0,
   "byteOffset": 2807252,
   "byteLength": 1928,
   "target": 34962,
   "byteStride": 8
  },
  {
   "buffer": 0,
   "byteOffset": 2809180,
   "byteLength": 1080,
   "target": 34963
  },
  {
   "buffer": 0,
   "byteOffset": 2810260,
   "byteLength": 9216,
   "target": 34962,
   "byteStride": 12
  },
  {
   "buffer": 0,
   "byteOffset": 2819476,
   "byteLength": 9216,
   "target": 34962,
   "byteStride": 12
  },
  {
   "buffer": 0,
   "byteOffset": 2828692,
   "byteLength": 2304,
   "target": 34963
  },
  {
   "buffer": 0,
   "byteOffset": 2830996,
   "byteLength": 6144,
   "target": 34962,
   "byteStride": 12
  },
  {
   "buffer": 0,
   "byteOffset": 2837140,
   "byteLength": 6144,
   "target": 34962,
   "byteStride": 12
  },
  {
   "buffer": 0,
   "byteOffset": 2843284,
   "byteLength": 4096,
   "target": 34962,
   "byteStride": 8
  },
  {
   "buffer": 0,
   "byteOffset": 2847380,
   "byteLength": 8192,
   "target": 34962,
   "byteStride": 16
  },
  {
   "buffer": 0,
   "byteOffset": 2855572,
   "byteLength": 1536,
   "target": 34963
  },
  {
   "buffer": 0,
   "byteOffset": 2857108,
   "byteLength": 15360,
   "target": 34962,
   "byteStride": 12
  },
  {
   "buffer": 0,
   "byteOffset": 2872468,
   "byteLength": 15360,
   "target": 34962,
   "byteStride": 12
  },
  {
   "buffer": 0,
   "byteOffset": 2887828,
   "byteLength": 10240,
   "target": 34962,
   "byteStride": 8
  },
  {
   "buffer": 0,
   "byteOffset": 2898068,
   "byteLength": 3840,
   "target": 34963
  },
  {
   "buffer": 0,
   "byteOffset": 2901908,
   "byteLength": 29760,
   "target": 34962,
   "byteStride": 12
  },
  {
   "buffer": 0,
   "byteOffset": 2931668,
   "byteLength": 29760,
   "target": 34962,
   "byteStride": 12
  },
  {
   "buffer": 0,
   "byteOffset": 2961428,
   "byteLength": 19840,
   "target": 34962,
   "byteStride": 8
  },
  {
   "buffer": 0,
   "byteOffset": 2981268,
   "byteLength": 19840,
   "target": 34962,
   "byteStride": 8
  },
  {
   "buffer": 0,
   "byteOffset": 3001108,
   "byteLength": 7440,
   "target": 34963
  },
  {
   "buffer": 0,
   "byteOffset": 3008548,
   "byteLength": 35616,
   "target": 34962,
   "byteStride": 12
  },
  {
   "buffer": 0,
   "byteOffset": 3044164,
   "byteLength": 35616,
   "target": 34962,
   "byteStride": 12
  },
  {
   "buffer": 0,
   "byteOffset": 3079780,
   "byteLength": 8880,
   "target": 34963
  },
  {
   "buffer": 0,
   "byteOffset": 3088660,
   "byteLength": 7836,
   "target": 34962,
   "byteStride": 12
  },
  {
   "buffer": 0,
   "byteOffset": 3096496,
   "byteLength": 7836,
   "target": 34962,
   "byteStride": 12
  },
  {
   "buffer": 0,
   "byteOffset": 3104332,
   "byteLength": 6816,
   "target": 34963
  }
 ],
 "buffers": [
  {
   "byteLength": 3111148,
   "uri": "data:application/octet-stream;base64,"
  }
 ],
 "images": [
  {
   "name": "aw_back_steel_42_gloss.tif",
   "bufferView": 0,
   "mimeType": "image/png"
  },
  {
   "name": "aw_back_steel_42_bump.tif",
   "bufferView": 1,
   "mimeType": "image/png"
  },
  {
   "name": "Screen_HomeScreen2.jpg",
   "bufferView": 2,
   "mimeType": "image/jpeg"
  },
  {
   "name": "AO_ROUGH_METAL_100.jpg",
   "bufferView": 3,
   "mimeType": "image/jpeg"
  }
 ],
 "materials": [
  {
   "name": "Metal_White",
   "pbrMetallicRoughness": {
    "roughnessFactor": 0
   }
  },
  {
   "name": "Metal_White",
   "pbrMetallicRoughness": {
    "roughnessFactor": 0
   },
   "doubleSided": true
  },
  {
   "name": "Metal_Black",
   "pbrMetallicRoughness": {
    "baseColorFactor": [
     0,
     0,
     0,
     1
    ],
    "baseColorTexture": {
     "index": 1,
     "texCoord": 0
    },
    "roughnessFactor": 0.19,
    "metallicFactor": 0
   }
  },
  {
   "name": "Glass",
   "pbrMetallicRoughness": {
    "baseColorFactor": [
     0.12941176470588237,
     0.12941176470588237,
     0.12941176470588237,
     0.2
    ],
    "roughnessFactor": 0
   },
   "alphaMode": "BLEND"
  },
  {
   "name": "LED",
   "pbrMetallicRoughness": {
    "baseColorFactor": [
     0,
     0,
     0,
     1
    ],
    "roughnessFactor": 0,
    "metallicFactor": 0
   },
   "emissiveTexture": {
    "index": 2
   },
   "emissiveFactor": [
    1,
    1,
    1
   ],
   "doubleSided": true
  },
  {
   "name": "Belt_Leather",
   "pbrMetallicRoughness": {
    "baseColorFactor": [
     1,
     0,
     0,
     1
    ],
    "roughnessFactor": 0.69,
    "metallicFactor": 0.3,
    "metallicRoughnessTexture": {
     "index": 3
    }
   },
   "doubleSided": true
  },
  {
   "name": "LED1",
   "pbrMetallicRoughness": {
    "baseColorFactor": [
     0,
     0,
     0,
     1
    ],
    "roughnessFactor": 0.1,
    "metallicFactor": 0
   },
   "doubleSided": true
  },
  {
   "name": "Metal_White_Rear",
   "pbrMetallicRoughness": {
    "baseColorTexture": {
     "index": 0,
     "texCoord": 0
    },
    "roughnessFactor": 0
   }
  },
  {
   "name": "Physical1",
   "pbrMetallicRoughness": {
    "baseColorFactor": [
     0,
     0,
     0,
     1
    ],
    "roughnessFactor": 0.25,
    "metallicFactor": 0
   },
   "doubleSided": true
  },
  {
   "name": "Metal_Rings",
   "pbrMetallicRoughness": {
    "roughnessFactor": 0
   },
   "doubleSided": true
  }
 ],
 "meshes": [
  {
   "primitives": [
    {
     "indices": 3,
     "material": 1,
     "mode": 4,
     "attributes": {
      "POSITION": 0,
      "NORMAL": 1,
      "TEXCOORD_0": 2
     }
    }
   ]
  },
  {
   "primitives": [
    {
     "indices": 7,
     "material": 5,
     "mode": 4,
     "attributes": {
      "POSITION": 4,
      "NORMAL": 5,
      "TEXCOORD_0": 6
     }
    }
   ]
  },
  {
   "primitives": [
    {
     "indices": 11,
     "material": 5,
     "mode": 4,
     "attributes": {
      "POSITION": 8,
      "NORMAL": 9,
      "TEXCOORD_0": 10
     }
    }
   ]
  },
  {
   "primitives": [
    {
     "indices": 15,
     "material": 0,
     "mode": 4,
     "attributes": {
      "POSITION": 12,
      "NORMAL": 13,
      "TEXCOORD_0": 14
     }
    }
   ]
  },
  {
   "primitives": [
    {
     "indices": 19,
     "material": 7,
     "mode": 4,
     "attributes": {
      "POSITION": 16,
      "NORMAL": 17,
      "TEXCOORD_0": 18
     }
    }
   ]
  },
  {
   "primitives": [
    {
     "indices": 24,
     "material": 4,
     "mode": 4,
     "attributes": {
      "POSITION": 20,
      "NORMAL": 21,
      "TEXCOORD_0": 22,
      "TEXCOORD_1": 23
     }
    }
   ]
  },
  {
   "primitives": [
    {
     "indices": 28,
     "material": 0,
     "mode": 4,
     "attributes": {
      "POSITION": 25,
      "NORMAL": 26,
      "TEXCOORD_0": 27
     }
    }
   ]
  },
  {
   "primitives": [
    {
     "indices": 31,
     "material": 3,
     "mode": 4,
     "attributes": {
      "POSITION": 29,
      "NORMAL": 30
     }
    }
   ]
  },
  {
   "primitives": [
    {
     "indices": 36,
     "material": 8,
     "mode": 4,
     "attributes": {
      "POSITION": 32,
      "NORMAL": 33,
      "TEXCOORD_0": 34,
      "TANGENT": 35
     }
    }
   ]
  },
  {
   "primitives": [
    {
     "indices": 40,
     "material": 9,
     "mode": 4,
     "attributes": {
      "POSITION": 37,
      "NORMAL": 38,
      "TEXCOORD_0": 39
     }
    }
   ]
  },
  {
   "primitives": [
    {
     "indices": 45,
     "material": 6,
     "mode": 4,
     "attributes": {
      "POSITION": 41,
      "NORMAL": 42,
      "TEXCOORD_0": 43,
      "TEXCOORD_1": 44
     }
    }
   ]
  },
  {
   "primitives": [
    {
     "indices": 48,
     "material": 2,
     "mode": 4,
     "attributes": {
      "POSITION": 46,
      "NORMAL": 47
     }
    }
   ]
  },
  {
   "primitives": [
    {
     "indices": 51,
     "material": 3,
     "mode": 4,
     "attributes": {
      "POSITION": 49,
      "NORMAL": 50
     }
    }
   ]
  }
 ],
 "nodes": [
  {
   "name": "Apple Watch - Combined no Materials/IBL",
   "translation": [
    0,
    -1.0819000005722046,
    1.7922999858856201
   ],
   "rotation": [
    -0.7071067811865475,
    0,
    0,
    0.7071067811865476
   ],
   "scale": [
    0.05000000074505806,
    0.05000000074505806,
    0.05000000074505806
   ],
   "children": [
    1,
    2
   ]
  },
  {
   "name": "42mm_classic_buckle",
   "translation": [
    0,
    0.6335999965667725,
    3.9184999465942383
   ],
   "children": [
    3,
    4,
    5
   ]
  },
  {
   "name": "body_42mm",
   "translation": [
    2.2095115184783936,
    35.2052001953125,
    27.408489227294922
   ],
   "children": [
    6,
    7,
    8,
    9,
    10,
    11,
    12,
    13,
    14,
    15
   ]
  },
  {
   "name": "aw_42mm_cb_lock1",
   "translation": [
    -0.03975420072674751,
    34.56809997558594,
    26.558300018310547
   ],
   "rotation": [
    -0.7071067759181896,
    0,
    0,
    0.7071067864549054
   ],
   "mesh": 0
  },
  {
   "name": "aw_42mm_cb_belt_top",
   "translation": [
    -0.000001759510041665635,
    34.56809997558594,
    26.558300018310547
   ],
   "rotation": [
    -0.7071067759181896,
    0,
    0,
    0.7071067864549054
   ],
   "mesh": 1
  },
  {
   "name": "aw_42mm_cb_belt_bottom",
   "translation": [
    -0.000001759510041665635,
    34.56809997558594,
    26.558300018310547
   ],
   "rotation": [
    -0.7071067759181896,
    0,
    0,
    0.7071067864549054
   ],
   "mesh": 2
  },
  {
   "name": "aw_42mm_body_button1",
   "translation": [
    15.466588020324707,
    0,
    -1.558187484741211
   ],
   "rotation": [
    -0.7071067759181896,
    0,
    0,
    0.7071067864549054
   ],
   "mesh": 3
  },
  {
   "name": "aw_42mm_body_main",
   "translation": [
    -2.209512710571289,
    0,
    3.074512481689453
   ],
   "rotation": [
    -0.7071067759181896,
    0,
    0,
    0.7071067864549054
   ],
   "mesh": 4
  },
  {
   "name": "aw_42mm_body_display_led",
   "translation": [
    -2.2095115184783936,
    -0.22800064086914062,
    -27.408489227294922
   ],
   "scale": [
    2,
    2,
    2
   ],
   "mesh": 5
  },
  {
   "name": "aw_42mm_body_button2",
   "translation": [
    -2.209512710571289,
    0,
    3.074512481689453
   ],
   "rotation": [
    -0.7071067759181896,
    0,
    0,
    0.7071067864549054
   ],
   "mesh": 6
  },
  {
   "name": "aw_42mm_body_display_glass2",
   "translation": [
    -2.209512710571289,
    0,
    3.074512481689453
   ],
   "rotation": [
    -0.7071067759181896,
    0,
    0,
    0.7071067864549054
   ],
   "mesh": 7
  },
  {
   "name": "aw_42mm_body_back_sensor_v2",
   "translation": [
    -2.209512710571289,
    0,
    -6.907186508178711
   ],
   "rotation": [
    -0.7071067141008924,
    0,
    0,
    0.7071068482722089
   ],
   "mesh": 8
  },
  {
   "name": "aw_42mm_body_back_sensor_rings",
   "translation": [
    -2.2095115184783936,
    -0.22800064086914062,
    -27.408489227294922
   ],
   "scale": [
    2,
    2,
    2
   ],
   "mesh": 9
  },
  {
   "name": "aw_42mm_body_display_front",
   "translation": [
    -2.2095000743865967,
    0,
    3.07450008392334
   ],
   "rotation": [
    -0.7071067759181896,
    0,
    0,
    0.7071067864549054
   ],
   "mesh": 10
  },
  {
   "name": "aw_42mm_body_back_sensor",
   "translation": [
    -2.209512710571289,
    0,
    -6.907186508178711
   ],
   "rotation": [
    -0.7071067141008924,
    0,
    0,
    0.7071068482722089
   ],
   "mesh": 11
  },
  {
   "name": "aw_42mm_body_display_glass",
   "translation": [
    -2.209512710571289,
    0,
    3.074512481689453
   ],
   "rotation": [
    -0.7071067759181896,
    0,
    0,
    0.7071067864549054
   ],
   "mesh": 12
  }
 ],
 "samplers": [
  {
   "magFilter": 9729,
   "minFilter": 9987,
   "wrapS": 10497,
   "wrapT": 10497
  }
 ],
 "scene": 0,
 "scenes": [
  {
   "nodes": [
    0
   ]
  }
 ],
 "textures": [
  {
   "sampler": 0,
   "source": 0
  },
  {
   "sampler": 0,
   "source": 1
  },
  {
   "sampler": 0,
   "source": 2
  },
  {
   "sampler": 0,
   "source": 3
  }
 ]
}