mtllib materials.mtl
v -0.1267249 0.04677272 0.01793955
v -0.08407138 0.0639267 0.07659841
v -0.1800594 0.03675508 0.006321691
v -0.1720794 0.03406131 0.1307292
v -0.2633243 0.01777351 0.1362914
v -0.2371688 0.02544081 0.00678372
v -0.4126425 -0.02759659 0.3063796
v -0.1224419 -0.003752112 0.0956894
v -0.1273537 -0.01273823 0.003702093
v -0.1064158 -0.02117717 0.09212737
v -0.1108624 -0.02931249 0.008849192
v -0.08445363 -0.02813232 0.08561196
v -0.08826505 -0.03510547 0.01423067
v -0.06244026 -0.02275383 0.07788897
v -0.06561647 -0.02856481 0.01840456
v -0.04627416 -0.006482959 0.07102776
v -0.04898532 -0.01144314 0.02025247
v -0.04028699 0.01632047 0.06686679
v -0.04282795 0.01167178 0.01927926
v 0.009857669 0.07360065 0.08654896
v -0.06210922 0.05697155 0.07008301
v -0.06528543 0.05116057 0.01059859
v -0.04491033 0.06963241 0.1365342
v -0.1271037 0.04061711 0.2083302
v -0.1775093 0.04611075 0.2673601
v -0.07197611 0.003600717 0.1729272
v -0.06072788 -0.01452053 0.1620525
v -0.04529257 -0.02242661 0.1455477
v -0.02980606 -0.01799905 0.1278355
v -0.01841794 -0.002424359 0.1136616
v -0.01417963 0.02012432 0.106824
v -0.01279916 0.0627414 0.09902832
v -0.02947503 0.06172633 0.1200295
v 0.01910713 0.07254195 0.1689647
v -0.01648705 0.07964313 0.2174729
v -0.0284383 0.03380406 0.3286369
v 0.1089987 -0.03094423 0.5297793
v 0.01052162 0.007350087 0.2147196
v 0.01395915 -0.01112604 0.1998881
v 0.01872489 -0.01951706 0.1779783
v 0.02354182 -0.01557446 0.1548609
v 0.02711928 -0.0003547668 0.1367302
v 0.02849868 0.02206397 0.1284443
v 0.02387287 0.06415093 0.1470549
v 0.09374402 0.05698943 0.2002892
v 0.1429299 0.04004741 0.2472775
v 0.1579309 0.0329262 0.3314125
v 0.3272815 0.006040692 0.4460431
v 0.102946 0.006491423 0.2098684
v 0.09763305 -0.01190352 0.1954962
v 0.09044535 -0.02018344 0.1742138
v 0.08330888 -0.01612985 0.1517239
v 0.07813583 -0.000828743 0.1340525
v 0.07631233 0.0216198 0.1259347
v 0.08192579 0.06719387 0.1248845
v 0.0865992 0.06205249 0.1451266
v 0.1510336 0.06781185 0.1262495
v 0.2076122 0.05111361 0.1780735
v 0.2449897 0.03235531 0.2066866
v 0.180532 0.001254559 0.1596736
v 0.1678734 -0.01664448 0.1500537
v 0.1506514 -0.02424717 0.1352631
v 0.1334805 -0.01951623 0.1192649
v 0.1209619 -0.00371933 0.1063458
v 0.1164497 0.01891065 0.09996754
v 0.1338116 0.06020927 0.111459
v 0.1926356 0.0585258 0.05976544
v 0.3232976 0.02037156 0.02987248
v 0.464826 -0.01401091 0.2466429
v 0.270279 -0.01177359 0.1002448
v 0.2058594 -0.02407861 0.07573672
v 0.1832108 -0.03061926 0.07156283
v 0.1606134 -0.02482629 0.06618135
v 0.1441222 -0.008252025 0.06103426
v 0.138156 0.0146625 0.0575007
v 0.1419367 0.04840553 0.05373776
v 0.1609445 0.0548991 0.0583754
v 0.1797816 0.05446661 -0.008832023
v 0.2477857 0.03621066 -0.02060571
v 0.2684572 0.02910161 0.03463818
v 0.3919538 0.001803637 -0.08632761
v 0.4921125 -0.01262224 0.1596181
v 0.2254407 -0.00672543 -0.01503022
v 0.2014127 -0.03221393 -0.007541474
v 0.1793994 -0.03759241 0.0001815222
v 0.1574372 -0.03063726 0.006696943
v 0.141411 -0.0132122 0.01025896
v 0.135615 0.01001382 0.009913165
v 0.1465613 0.0530616 0.009175833
v 0.1406206 0.04876089 -0.06876779
v 0.1642795 0.02271914 -0.1207199
v 0.2067231 -0.01608574 -0.2334169
v 0.4824035 -0.001337886 -0.1064544
v 0.1846095 -0.03688359 -0.1069513
v 0.1557249 -0.03887069 -0.07746654
v 0.1402383 -0.04329813 -0.05975424
v 0.124803 -0.03539205 -0.04324953
v 0.1135548 -0.0172708 -0.03237484
v 0.1095076 0.00620997 -0.03004402
v 0.08483022 0.03587997 -0.04377615
v 0.1251341 0.04433334 -0.05105551
v 0.07660311 0.04585135 -0.1011983
v 0.08959247 0.01932466 -0.1585555
v 0.07574759 -0.0135721 -0.2250257
v 0.04539119 -0.07964301 -0.5297793
v 0.07188071 -0.03616428 -0.1776639
v 0.0810378 -0.04226506 -0.1153022
v 0.07622087 -0.04620767 -0.09218478
v 0.07145514 -0.03781664 -0.07027497
v 0.0680176 -0.0193404 -0.05544348
v 0.06682934 0.004270315 -0.05166437
v 0.07178618 0.04190886 -0.07808095
v -0.01413004 0.01523006 -0.1764942
v -0.05211781 -0.0195049 -0.3072141
v -0.007809103 -0.02618659 -0.1285817
v -0.00263606 -0.04148757 -0.1109103
v 0.004500404 -0.04554129 -0.08842033
v 0.0116881 -0.03726137 -0.06713793
v 0.01700106 -0.01886642 -0.05276574
v 0.01901568 0.004714489 -0.04915474
v 0.00744395 0.05109549 -0.04793292
v -0.05532341 0.05058146 -0.05848309
v -0.08471514 0.02652371 -0.08739471
v -0.1065381 0.0003516674 -0.183511
v -0.4307508 -0.07319951 -0.1586978
v -0.08539517 -0.02094984 -0.07838678
v -0.0728765 -0.03674662 -0.06546772
v -0.05570565 -0.04147756 -0.04946955
v -0.03848362 -0.03387487 -0.03467894
v -0.02582501 -0.01597583 -0.02505907
v -0.0211217 0.007423639 -0.02318755
v 0.07334988 0.05636764 0.01315032
v -0.05108748 0.05225575 -0.02916275
v 0.3347358 -0.06360614 -0.3858499
v -0.2375409 -0.07291055 -0.4004914
v -0.4921125 -0.02243042 0.1005105
v -0.1254433 -0.0358932 0.4587135
v 0.006052345 0.02946353 -0.0914641
vn -0.1435186 0.9731014 -0.1802114
vn -0.1737185 0.9842604 0.03245505
vn -0.2935211 0.9559488 -0.002684303
vn 0.1452288 -0.9854311 0.08851104
vn -0.8492915 -0.5116168 -0.1302011
vn -0.4927245 -0.8699798 -0.01891245
vn -0.004132437 -0.9952325 0.09744375
vn 0.4855672 -0.8538132 0.18769
vn 0.8451591 -0.4836156 0.2276448
vn 0.7479349 -0.6633062 0.0248612
vn -0.2059965 0.97492 -0.08423949
vn 0.4927243 0.86998 0.01891238
vn -0.2666419 0.9602318 0.08280764
vn -0.174634 0.984468 0.01804519
vn -0.30053 0.9537258 -0.009430155
vn 0.1020312 -0.9943871 0.02799774
vn -0.8255019 -0.468093 0.3153342
vn -0.4789896 -0.8448513 0.2383174
vn -0.004132437 -0.9952325 0.09744375
vn 0.4718323 -0.8789417 -0.06953998
vn 0.8213695 -0.5271394 -0.2178904
vn 0.8359992 -0.1248244 -0.5343448
vn -0.09863275 0.9946642 -0.03024454
vn 0.4789894 0.8448515 -0.2383174
vn 0.02074975 0.9913107 -0.1298943
vn -0.2895374 0.8981774 -0.3308255
vn -0.06478176 0.9361395 0.34561
vn 0.1245564 -0.9795529 -0.1579932
vn -0.5810733 -0.4324799 0.6894308
vn -0.3378688 -0.8242901 0.4543023
vn -0.004132437 -0.9952325 0.09744375
vn 0.3307113 -0.8995029 -0.285525
vn 0.576941 -0.5627525 -0.5919871
vn 0.4512668 -0.1746981 -0.8751222
vn -0.04980778 0.9987208 0.008720555
vn 0.3378686 0.8242903 -0.4543021
vn 0.2020304 0.9793672 0.004873822
vn 0.2337077 0.9714607 0.04055521
vn 0.001212223 0.9739764 0.2266461
vn -0.008944969 -0.9999382 0.006588471
vn -0.1815004 -0.4143201 0.8918501
vn -0.1071751 -0.8138055 0.571169
vn -0.004132437 -0.9952325 0.09744375
vn 0.1000176 -0.9099876 -0.4023918
vn 0.1773679 -0.5809124 -0.7944064
vn -0.05256182 -0.01653384 -0.9984808
vn 0.03976741 0.9706102 0.2373486
vn 0.3074659 0.9090406 -0.2812646
vn 0.09178814 0.9726871 0.2132011
vn 0.2033326 0.9192696 0.3370449
vn 0.108983 0.9914666 0.07153202
vn -0.04250024 -0.9983557 0.03846467
vn 0.2661518 -0.4184794 0.8683538
vn 0.151277 -0.8162069 0.5576035
vn -0.004132437 -0.9952325 0.09744375
vn -0.1584347 -0.9075863 -0.388826
vn -0.2702843 -0.5767531 -0.7709101
vn -0.5403386 0.04719563 -0.8401231
vn 0.1819091 0.9622574 0.2024098
vn -0.3204623 0.9408004 -0.1104463
vn 0.2596036 0.9653204 0.02761561
vn 0.379999 0.9188913 0.1060163
vn 0.202273 0.9790537 0.02322689
vn -0.08195729 -0.9922168 0.09374883
vn 0.6419352 -0.4438433 0.6252378
vn 0.3682356 -0.8308508 0.4172404
vn -0.004132437 -0.9952325 0.09744375
vn -0.3753933 -0.8929424 -0.248463
vn -0.6460677 -0.5513891 -0.5277941
vn -0.8874197 0.04830986 -0.458424
vn -0.2642566 0.9369215 -0.2287938
vn -0.3682354 0.830851 -0.4172402
vn 0.2413485 0.9650283 -0.1023295
vn 0.2460484 0.9687095 0.03259056
vn 0.2137111 0.9764435 -0.02975852
vn 0.008802586 -0.9988483 -0.04716576
vn 0.7313934 -0.6814006 0.02751194
vn 0.4855669 -0.8538134 0.1876899
vn -0.004132437 -0.9952325 0.09744375
vn -0.4927247 -0.8699797 -0.01891246
vn -0.8492915 -0.5116167 -0.130201
vn -0.9923931 0.1158412 0.04167299
vn -0.3364231 0.9395838 0.0632596
vn -0.05389233 0.9983147 -0.02153009
vn 0.2148231 0.9490132 -0.2307055
vn 0.1644497 0.9500657 -0.265201
vn 0.005940811 0.9917434 -0.1280997
vn 0.1138941 -0.9578649 0.2636721
vn 0.6300655 -0.6954634 -0.345468
vn 0.471832 -0.8789418 -0.06954002
vn -0.004132437 -0.9952325 0.09744375
vn -0.4789897 -0.8448513 0.2383177
vn -0.8255019 -0.4680929 0.3153343
vn -0.7560706 -0.3833177 0.5304949
vn -0.2159696 0.9742771 -0.06435351
vn -0.330711 0.8995032 0.2855245
vn 0.1540957 0.9096269 -0.3857894
vn 0.1030961 0.9517913 -0.2889021
vn 0.005148134 0.9771767 -0.2123658
vn -0.08692341 -0.9878899 0.1285225
vn 0.101468 -0.9885583 -0.111609
vn 0.3307112 -0.8995031 -0.2855247
vn -0.004132437 -0.9952325 0.09744375
vn -0.3378688 -0.8242899 0.4543025
vn -0.5810734 -0.4324799 0.689431
vn -0.4529102 0.03560954 0.8908448
vn -0.330711 0.8995032 0.2855245
vn 0.03547786 0.9100987 -0.4128702
vn 0.04266773 0.8918669 -0.4502809
vn 0.09640503 0.9707122 -0.2200544
vn -0.04655258 -0.9909546 0.1258639
vn -0.2702842 -0.5767532 -0.77091
vn 0.1000176 -0.9099876 -0.4023915
vn -0.004132437 -0.9952325 0.09744375
vn -0.1071752 -0.8138053 0.5711693
vn -0.1815004 -0.4143199 0.8918501
vn 0.04802658 -0.2675073 0.9623582
vn 0.18673 0.9772325 0.1007398
vn 0.2342177 0.9490848 0.2106658
vn -0.3366353 0.863262 -0.3761056
vn -0.1375347 0.963174 -0.2310412
vn -0.2324158 0.9391363 -0.2529941
vn 0.09030921 -0.9664588 0.24042
vn -0.2702842 -0.5767532 -0.77091
vn -0.1584346 -0.9075863 -0.388826
vn -0.004132437 -0.9952325 0.09744375
vn 0.1512769 -0.8162067 0.5576037
vn 0.2661518 -0.4184793 0.8683538
vn 0.2522446 -0.8415374 0.4776899
vn 0.0354082 0.9792992 -0.199297
vn 0.00144115 0.9983606 -0.05721881
vn -0.3900729 0.8628548 -0.3214416
vn -0.1263685 0.964035 -0.2338109
vn -0.2327384 0.9306167 -0.2824627
vn 0.1123028 -0.9814195 0.1555761
vn -0.6460678 -0.5513893 -0.5277938
vn -0.3753935 -0.8929424 -0.2484628
vn -0.004132437 -0.9952325 0.09744375
vn 0.3682359 -0.8308506 0.4172404
vn 0.6419355 -0.4438432 0.6252376
vn 0.5040805 -0.7951134 0.3371906
vn -0.2328995 0.9708626 -0.05642365
vn -0.07347734 0.9971167 -0.01895587
vn -0.1034504 -0.6496686 -0.7531459
vn -0.3213714 0.921436 0.2183486
vn 0.3712474 -0.5011597 -0.781674
vn 0.006562361 0.9882322 0.1528203
vn -0.4071198 -0.6315982 0.6598009
vn 0.1186122 0.9912851 -0.05731513
vn -0.293176 -0.7244719 -0.6238496
vn 0.1412031 0.9736222 -0.1792244
vn 0.01954234 -0.7534437 0.657222
vn 0.2154773 0.9686585 0.1235726
vn -0.4521891 -0.89192 -0.00197917
vn -0.01926816 0.9573811 -0.2881843
vn 0.5782982 -0.6674548 0.4691219
vn -0.2781619 0.9152589 0.2914225
vn 0.3703766 -0.8476971 0.3797774
vn 0.1995624 0.9341264 -0.2959437
vn -0.1599116 0.9600748 0.2295313
vn 0.0359722 0.9955831 0.0867196
vn 0.09492816 0.9923614 0.07878774
vn 0.0437354 0.9982122 0.04073906
vn 0.005796311 -0.9990761 -0.04258314
vn 0.06798623 0.9672756 -0.2444499
vn 0.006093861 -0.9951059 0.09862585
vn 0.1994076 0.9791367 0.03908813
vn -0.06947798 -0.996214 0.05225354
vn -0.1991086 0.9671654 -0.1579459
vn 0.1043211 -0.9911429 0.08217531
vn -0.1539321 0.9844936 0.08412655
vn 0.01804872 -0.9993234 -0.03204468
vn -0.1471464 0.8940226 0.4231685
vn 0.05904039 -0.9902964 -0.1258072
vn -0.2037305 0.8785862 0.4319494
vn 0.04002997 -0.9907801 -0.1294307
vn -0.03437696 0.944245 0.3274442
vn 0.1077222 -0.9823269 -0.1530685
vn -0.2653077 0.9324038 -0.2454281
vn 0.0816622 -0.9742525 0.2101508
vn -0.1177072 0.9444768 -0.3067711
vn 0.03908 -0.989791 0.137064
vn 0.06278279 0.9665695 -0.2485996
vn 0.1167973 -0.9806943 0.1568348
vn 0.1457502 0.9874107 0.0614559
vn 0.0004107556 -0.9998747 -0.01582638
vn 0.2625652 -0.9453106 0.1935135
vn 0.02220339 -0.998715 -0.04555546
vn -0.08030057 0.9838245 -0.1601288
vn -0.00132095 0.9245349 0.3810951
vn -0.1898841 0.9480221 -0.2553395
vn -0.0769906 0.9246317 0.3729998
vn 0.1010673 0.9926879 0.06600132
vn 0.1510487 0.9861615 -0.06833512
vn 0.3652355 0.9308367 0.01208317
vn 0.1491499 0.984902 -0.08787683
vn 0.3577931 0.9337 -0.01372766
vn 0.1117181 0.9598189 -0.2574231
vn -0.2387262 0.9654003 -0.1049385
vn -0.2599936 0.868014 -0.4230308
vn 0.2149304 0.9536415 -0.2106482
vn 0.06760914 0.8926121 -0.4457272
vn -0.005817623 0.9967974 -0.07975756
vn 0.2746666 -0.8557268 0.4385087
vn 0.2178991 0.9684308 0.121086
vn 0.09766705 0.9644615 0.2455098
vn -0.1941573 0.9807892 0.01885385
vn -0.2990421 0.9534085 0.03982577
vn -0.3327205 0.9430255 0.0002060248
vn 0.1445714 0.945076 -0.2931391
vn -0.01108002 0.8971051 -0.4416784
vn -0.1391625 0.9663497 -0.2163378
vn 0.2574209 0.9057145 -0.3367724
vn -0.102712 0.9743237 -0.2003585
vn -0.1119796 0.9929922 -0.03777673
vn 0.06491 -0.9497418 0.3062307
vn 0.2346927 -0.9628652 -0.1334537
vn -0.1293093 0.9629434 -0.2366837
vn -0.1002069 0.9891219 -0.1076869
vn -0.1663304 0.9855425 -0.03224891
vn -0.09511306 0.9719551 -0.2150739
vn -0.1672405 -0.98331 -0.07163878
usemtl mat18
f 3//1 2//1 1//1
f 5//2 4//2 3//2
f 7//3 5//3 6//3
f 9//4 8//4 7//4
f 11//5 10//5 8//5 9//5
f 13//6 12//6 10//6 11//6
f 15//7 14//7 12//7 13//7
f 17//8 16//8 14//8 15//8
f 19//9 18//9 16//9 17//9
f 20//10 18//10 19//10
f 22//11 21//11 20//11
f 2//12 21//12 22//12
f 4//13 24//13 23//13 2//13
f 5//14 24//14 4//14
f 7//15 25//15 5//15
f 8//16 26//16 7//16
f 10//17 27//17 26//17 8//17
f 12//18 28//18 27//18 10//18
f 14//19 29//19 28//19 12//19
f 16//20 30//20 29//20 14//20
f 18//21 31//21 30//21 16//21
f 32//22 31//22 18//22
f 21//23 33//23 32//23
f 2//24 23//24 33//24 21//24
f 35//25 34//25 23//25
f 25//26 35//26 24//26
f 37//27 36//27 25//27
f 26//28 38//28 37//28
f 27//29 39//29 38//29 26//29
f 28//30 40//30 39//30 27//30
f 29//31 41//31 40//31 28//31
f 30//32 42//32 41//32 29//32
f 31//33 43//33 42//33 30//33
f 32//34 43//34 31//34
f 33//35 44//35 32//35
f 23//36 34//36 44//36 33//36
f 35//37 45//37 34//37
f 47//38 46//38 35//38
f 48//39 47//39 36//39
f 38//40 49//40 48//40
f 39//41 50//41 49//41 38//41
f 40//42 51//42 50//42 39//42
f 41//43 52//43 51//43 40//43
f 42//44 53//44 52//44 41//44
f 43//45 54//45 53//45 42//45
f 55//46 54//46 43//46
f 44//47 56//47 55//47
f 34//48 45//48 44//48
f 58//49 57//49 45//49
f 59//50 58//50 46//50
f 48//51 59//51 47//51
f 49//52 60//52 48//52
f 50//53 61//53 60//53 49//53
f 51//54 62//54 61//54 50//54
f 52//55 63//55 62//55 51//55
f 53//56 64//56 63//56 52//56
f 54//57 65//57 64//57 53//57
f 55//58 65//58 54//58
f 56//59 66//59 55//59
f 45//60 57//60 66//60
f 58//61 67//61 57//61
f 59//62 68//62 58//62
f 69//63 68//63 59//63
f 60//64 70//64 69//64
f 61//65 71//65 60//65
f 62//66 72//66 71//66 61//66
f 63//67 73//67 72//67 62//67
f 64//68 74//68 73//68 63//68
f 65//69 75//69 74//69 64//69
f 76//70 75//70 65//70
f 66//71 77//71 76//71
f 57//72 77//72 66//72
f 79//73 78//73 67//73
f 81//74 79//74 80//74
f 82//75 81//75 68//75
f 70//76 83//76 82//76
f 71//77 84//77 83//77
f 72//78 85//78 84//78 71//78
f 73//79 86//79 85//79 72//79
f 74//80 87//80 86//80 73//80
f 75//81 88//81 87//81 74//81
f 76//82 88//82 75//82
f 77//83 89//83 76//83
f 78//84 89//84 77//84
f 79//85 90//85 78//85
f 92//86 91//86 79//86
f 93//87 92//87 81//87
f 83//88 94//88 93//88
f 84//89 95//89 83//89
f 85//90 96//90 95//90 84//90
f 86//91 97//91 96//91 85//91
f 87//92 98//92 97//92 86//92
f 88//93 99//93 98//93 87//93
f 100//94 99//94 88//94
f 89//95 101//95 100//95
f 78//96 90//96 101//96
f 91//97 103//97 102//97 90//97
f 92//98 103//98 91//98
f 105//99 104//99 92//99
f 94//100 106//100 105//100
f 95//101 107//101 106//101
f 96//102 108//102 107//102 95//102
f 97//103 109//103 108//103 96//103
f 98//104 110//104 109//104 97//104
f 99//105 111//105 110//105 98//105
f 100//106 111//106 99//106
f 90//107 102//107 112//107 101//107
f 103//108 113//108 102//108
f 104//109 113//109 103//109
f 105//110 114//110 104//110
f 106//111 115//111 105//111
f 107//112 116//112 115//112
f 108//113 117//113 116//113 107//113
f 109//114 118//114 117//114 108//114
f 110//115 119//115 118//115 109//115
f 111//116 120//116 119//116 110//116
f 100//117 120//117 111//117
f 112//118 121//118 100//118
f 102//119 121//119 112//119
f 113//120 123//120 122//120
f 124//121 123//121 113//121
f 125//122 124//122 114//122
f 115//123 126//123 125//123
f 116//124 127//124 126//124 115//124
f 117//125 128//125 127//125 116//125
f 118//126 129//126 128//126 117//126
f 119//127 130//127 129//127 118//127
f 120//128 131//128 130//128 119//128
f 132//129 131//129 120//129
f 133//130 20//130 132//130
f 122//131 133//131 121//131
f 123//132 1//132 122//132
f 124//133 3//133 123//133
f 125//134 6//134 124//134
f 126//135 9//135 125//135
f 127//136 11//136 9//136 126//136
f 128//137 13//137 11//137 127//137
f 129//138 15//138 13//138 128//138
f 130//139 17//139 15//139 129//139
f 131//140 19//140 17//140 130//140
f 20//141 19//141 131//141
f 133//142 22//142 20//142
f 122//143 1//143 22//143
f 32//144 20//144 43//144
f 44//145 20//145 32//145
f 43//146 20//146 55//146
f 55//147 20//147 44//147
f 55//148 20//148 65//148
f 66//149 20//149 55//149
f 65//150 20//150 76//150
f 76//151 20//151 66//151
f 76//152 20//152 88//152
f 89//153 20//153 76//153
f 88//154 20//154 100//154
f 100//155 20//155 89//155
f 18//156 20//156 32//156
f 32//157 20//157 21//157
f 100//158 132//158 120//158
f 121//159 132//159 100//159
f 112//160 100//160 101//160
f 45//161 56//161 44//161
f 66//162 56//162 45//162
f 82//163 93//163 81//163
f 83//164 93//164 82//164
f 92//165 134//165 105//165
f 105//166 134//166 94//166
f 48//167 69//167 59//167
f 60//168 69//168 48//168
f 114//169 135//169 125//169
f 125//170 135//170 115//170
f 6//171 136//171 7//171
f 7//172 136//172 9//172
f 25//173 137//173 37//173
f 37//174 137//174 26//174
f 7//175 137//175 25//175
f 26//176 137//176 7//176
f 36//177 37//177 48//177
f 48//178 37//178 38//178
f 125//179 136//179 6//179
f 9//180 136//180 125//180
f 105//181 135//181 114//181
f 115//182 135//182 105//182
f 93//183 134//183 92//183
f 94//184 134//184 93//184
f 69//185 82//185 68//185
f 70//186 82//186 69//186
f 95//187 94//187 83//187
f 106//188 94//188 95//188
f 5//189 25//189 24//189
f 35//190 36//190 47//190
f 124//191 6//191 3//191
f 25//192 36//192 35//192
f 46//193 47//193 59//193
f 80//194 68//194 81//194
f 58//195 80//195 67//195
f 68//196 80//196 58//196
f 67//197 80//197 79//197
f 79//198 81//198 92//198
f 113//199 138//199 102//199
f 102//200 138//200 121//200
f 122//201 138//201 113//201
f 121//202 138//202 122//202
f 132//203 121//203 133//203
f 132//204 20//204 131//204
f 35//205 46//205 45//205
f 45//206 46//206 58//206
f 3//207 6//207 5//207
f 3//208 4//208 2//208
f 23//209 24//209 35//209
f 104//210 114//210 113//210
f 92//211 104//211 103//211
f 113//212 114//212 124//212
f 79//213 91//213 90//213
f 57//214 67//214 77//214
f 77//215 67//215 78//215
f 71//216 70//216 60//216
f 83//217 70//217 71//217
f 123//218 3//218 1//218
f 101//219 89//219 78//219
f 22//220 133//220 122//220
f 22//221 1//221 2//221
f 115//222 106//222 107//222
